<svg id="Layer_5" data-name="Layer 5" xmlns="http://www.w3.org/2000/svg" xmlns:xlink="http://www.w3.org/1999/xlink" viewBox="0 0 1366 768"><defs><style>.cls-1{fill:url(#linear-gradient);}.cls-2{fill:url(#linear-gradient-2);}</style><linearGradient id="linear-gradient" x1="-0.11" y1="296.07" x2="0" y2="296.07" gradientUnits="userSpaceOnUse"><stop offset="0" stop-color="#3db5d5"/><stop offset="1" stop-color="#5d059f"/></linearGradient><linearGradient id="linear-gradient-2" x1="0" y1="326.68" x2="1367.72" y2="326.68" xlink:href="#linear-gradient"/></defs><title>bg-2</title><path class="cls-1" d="M-.11,246.36v99.41l.11,0V246.4Z"/><path class="cls-2" d="M1355.84,317.37c-116.35-59-238.88-67.37-405-55-161.53,12.07-246.45,35-331.19,47.87C477.57,331.86,271.08,335.13,0,246.4v99.39a1854.37,1854.37,0,0,0,404.82,9.93c127-10.84,136.05-26.52,288.86-41.19,221.15-21.24,353.62-32.67,505.14,15.62,96.07,30.62,123.21,43.35,168.9,76.81V323.17C1365.47,322.15,1361.78,320.38,1355.84,317.37Z"/><path class="cls-2" d="M1355.84,317.37c-116.35-59-238.88-67.37-405-55-161.53,12.07-246.45,35-331.19,47.87C477.57,331.86,271.08,335.13,0,246.4v99.39a1854.37,1854.37,0,0,0,404.82,9.93c127-10.84,136.05-26.52,288.86-41.19,221.15-21.24,353.62-32.67,505.14,15.62,96.07,30.62,123.21,43.35,168.9,76.81V323.17C1365.47,322.15,1361.78,320.38,1355.84,317.37Z"/></svg>