<svg id="Layer_6" data-name="Layer 6" xmlns="http://www.w3.org/2000/svg" xmlns:xlink="http://www.w3.org/1999/xlink" viewBox="0 0 1366 193.44"><defs><style>.cls-1{fill:url(#linear-gradient);}</style><linearGradient id="linear-gradient" y1="471.41" x2="1366" y2="471.41" gradientUnits="userSpaceOnUse"><stop offset="0" stop-color="#3db5d5"/><stop offset="1" stop-color="#5d059f"/></linearGradient></defs><title>bg-3-01</title><path class="cls-1" d="M1366,376a911.74,911.74,0,0,0-164,6c-131.73,16.82-200,61.76-329,94,0,0-118.44,35.92-283,59C467.75,552.15,266.61,561.07,0,485v15c26.53,8.32,69.84,21.07,124,33,274.47,60.47,505.23,28.93,649,8,121.89-17.74,122-18,259-53,198.1-50.61,253.11-31.14,305-22,12.64,2.23,22.82,4.53,29,6Z" transform="translate(0 -374.69)"/></svg>