<svg id="Layer_5" data-name="Layer 5" xmlns="http://www.w3.org/2000/svg" viewBox="0 0 1366 768"><defs><style>.cls-1{fill:#fff;}</style></defs><title>bg-4</title><path class="cls-1" d="M1356.81,235.46c-116.59-58.52-239.38-66.85-405.88-54.54-161.88,12-247,34.71-331.9,47.49C476.69,249.84,269.77,253.08-1.88,165v98.62a1877.15,1877.15,0,0,0,405.67,9.85C531,262.75,540.12,247.2,693.26,232.64c221.61-21.07,354.36-32.42,506.2,15.5,96.27,30.39,123.46,43,169.25,76.21V241.21C1366.46,240.21,1362.77,238.45,1356.81,235.46Z"/><path class="cls-1" d="M1369,86c-121,11-75.5-4.31-242,8-161.88,12-402.07,6.22-487,19C497.65,134.43,309,140-2,86l.12,177.66a1877.15,1877.15,0,0,0,405.67,9.85C531,262.75,540.12,247.2,693.26,232.64c221.61-21.07,354.36-32.42,506.2,15.5,96.27,30.39,123.46,43,169.25,76.21V241.21C1366.46,240.21,1375.64,85.4,1369,86Z"/></svg>