<?xml version="1.0" encoding="utf-8"?>
<!-- Generator: Adobe Illustrator 23.0.1, SVG Export Plug-In . SVG Version: 6.00 Build 0)  -->
<svg version="1.1" xmlns="http://www.w3.org/2000/svg" xmlns:xlink="http://www.w3.org/1999/xlink" x="0px" y="0px"
	 viewBox="0 0 1366 1293" style="enable-background:new 0 0 1366 1293;" xml:space="preserve">
<style type="text/css">
	.st0{fill:url(#SVGID_1_);}
	.st1{opacity:0.62;fill:url(#SVGID_2_);}
	.st2{opacity:0.45;fill:#6C6A9C;}
</style>
<g id="Capa_1">
	<linearGradient id="SVGID_1_" gradientUnits="userSpaceOnUse" x1="61.2856" y1="1399.1498" x2="1829.6166" y2="378.2035">
		<stop  offset="0.1829" style="stop-color:#6C6A9C"/>
		<stop  offset="1" style="stop-color:#45CB9A"/>
	</linearGradient>
	<path class="st0" d="M0,787.41c146.53-5.05,425.37,34.34,703.89-124.18C1159.92,403.66,1319.06,129.01,1366,0c0,431,0,862,0,1293
		c-455.33,0-910.67,0-1366,0C0,1197.15,0,883.26,0,787.41z"/>
</g>
<g id="Capa_2">
	<linearGradient id="SVGID_2_" gradientUnits="userSpaceOnUse" x1="0.1901" y1="1293.3656" x2="467.6414" y2="1023.4824">
		<stop  offset="0.1829" style="stop-color:#6C6A9C"/>
		<stop  offset="1" style="stop-color:#45CB9A"/>
	</linearGradient>
	<path class="st1" d="M-15.43,1266.31c85.28,1.09,148.57-24.21,184.39-42.39c55.22-28.03,87.23-60.5,94.67-68.22
		c20.39-21.15,58.65-61.81,76.55-128.1c10.55-39.09,17.23-98.99,0-109.31c-12.55-7.52-33.44,13.87-39.51,20.08
		c-60.3,61.72-54,178.66-52.68,203.01c1.55,28.76-0.04,111.46,36.29,150.63c5.19,5.6,11.15,10.3,18.01,13.84"/>
</g>
<g id="Capa_3">
	<path class="st2" d="M1498.86,371.57c-172.87,5.71-315.61,58.78-360.78,135.14c-5.84,9.87-47.14,82.91,16.78,132.69
		c69.76,54.32,194.16,25.9,243.32,71.26c49.68,45.84-14.07,133.27-100.68,186.74c-131.34,81.09-268.49,55.21-461.46,115.49
		c-81.3,25.39-256.1,88.06-335.61,206.4c-19.94,29.69-29.01,55.84-33.56,73.71c344,0,688,0,1032,0
		C1498.86,985.86,1498.86,678.71,1498.86,371.57z"/>
</g>
</svg>
